<svg xmlns="http://www.w3.org/2000/svg" width="127.066" height="22" viewBox="0 0 127.066 22">
  <g id="Group_2" data-name="Group 2" transform="translate(-117 310)">
    <path id="Path_1" data-name="Path 1" d="M180.443,21.892l-1.754-.129c-1.119-.086-1.733-.129-1.431-1.419.211-.9.515-1.376,2.837-1.376h20.768l.824-3.526H180.918c-4.214,0-6.885.3-7.965,4.923s1.247,4.6,5.159,4.88l.931.065c1.991.129,2.232.108,1.906,1.5-.316,1.354-1.013,1.483-3.034,1.483-2.107,0-2.669-.172-2.277-1.849H171.51c-1.236,5.289,1.475,5.375,5.581,5.375,7.095,0,7.6-2.623,8.223-5.289.864-3.7-.178-4.3-4.87-4.644" transform="translate(-23.066 -322.633)" fill="#080035"/>
    <path id="Path_2" data-name="Path 2" d="M253.94,61.376h11.78l.824-3.525h-7.482l.733-3.14h6.88l.7-2.989H256.2Z" transform="translate(-90.747 -352.314)" fill="#080035"/>
    <path id="Path_3" data-name="Path 3" d="M345.151,26.278H345l-.708-10.126h-6.815l-3.767,16.124h4.3l2.458-12.362h.129l1.24,12.362h3.719l6.973-12.362h.15l-3.318,12.362h4.3l3.767-16.124H350.44Z" transform="translate(-156.007 -323.214)" fill="#080035"/>
    <path id="Path_4" data-name="Path 4" d="M480.14,16.151H467.37l-.874,3.741h4.128L467.73,32.276h4.3l2.893-12.383h4.343Z" transform="translate(-264.639 -323.214)" fill="#080035"/>
    <path id="Path_5" data-name="Path 5" d="M542.929,19.677l.824-3.526H532.122l-3.767,16.124h11.781l.824-3.526h-7.482l.733-3.139h6.88l.7-2.988h-6.88l.688-2.945Z" transform="translate(-315.246 -323.213)" fill="#080035"/>
    <path id="Path_6" data-name="Path 6" d="M621.255,15.442c-4.73,0-7.77.774-9.016,6.106l-.974,4.171c-1.376,5.891,1.777,6.106,6.162,6.106,1.87,0,3.65.022,5.393-1.182,1.748-1.225,2.141-2.816,2.553-4.579l.111-.473h-4.429l-.11.473c-.442,1.892-1.332,2.021-3.117,2.021-2.58,0-2.471-.924-1.909-3.332l.588-2.516c.538-2.3.95-3.053,3.4-3.053,1.462,0,2.447.108,2.261,1.548l-.146.624h4.429l.146-.624c1.044-4.837-.914-5.289-5.343-5.289" transform="translate(-382.808 -322.633)" fill="#080035"/>
    <path id="Path_7" data-name="Path 7" d="M0,71.472l6.147-11h.475l6.148,11Z" transform="translate(117 -359.472)" fill="#0421b9"/>
    <path id="Path_8" data-name="Path 8" d="M83.445,0,77.3,11h-.475L70.675,0Z" transform="translate(59.181 -310)" fill="#558dfe"/>
    <path id="Path_9" data-name="Path 9" d="M25.456.3l.169-.3H9.869A6.342,6.342,0,0,0,4.333,3.248L0,11H12.771l-.055-.1A7.183,7.183,0,0,1,19.046.3Z" transform="translate(117 -310)" fill="#84b9ff"/>
    <path id="Path_10" data-name="Path 10" d="M.169,71.169l-.169.3H15.757a6.342,6.342,0,0,0,5.536-3.248l4.333-7.752H12.854l.055.1a7.183,7.183,0,0,1-6.33,10.6Z" transform="translate(117 -359.472)" fill="#1553fc"/>
  </g>
</svg>
